# xmcd CD database file
#
# Track frame offsets:
#	150
#	10199
#	21559
#	32790
#	42735
#	53448
#	62230
#	71343
#	81915
#	97658
#	108050
#	119339
#	128491
#	141087
#	150382
#	160545
#	176799
#	186131
#	197928
#	208728
#
# Disc length: 2925 seconds
#
# Revision: 6
# Processed by: cddbd v1.5.2PL0 Copyright (c) Steve Scherf et al.
# Submitted via: CDex 1.70beta2
#
DISCID=0a0b6b14
DTITLE=Buck Owens - The Buck Owens Collection  -  Disc 2
DYEAR=1992
DGENRE=Country
TTITLE0=I've Got A Tiger By The Tail
TTITLE1=Cryin' Time
TTITLE2=Memphis
TTITLE3=Before You Go
TTITLE4=Only You (Can Break My Heart)
TTITLE5=Gonna Have Love
TTITLE6=Buckaroo
TTITLE7=Waitin' In Your Welfare Line
TTITLE8=Dust On Mother's Bible
TTITLE9=Think Of Me
TTITLE10=Open Up Your Heart
TTITLE11=Sam's Place
TTITLE12=Your Tender Loving Care
TTITLE13=It Takes People Like You (To Make People Like Me)
TTITLE14=How Long Will My Baby Be Gone
TTITLE15=Sweet Rosie Jones
TTITLE16=Let The World Keep On A Turnin'
TTITLE17=I've Got You On My Mind Again
TTITLE18=Who's Gonna Mow Your Grass
TTITLE19=Johnny B. Goode
EXTD=YEAR: 1992
EXTT0=
EXTT1=
EXTT2=
EXTT3=
EXTT4=
EXTT5=
EXTT6=
EXTT7=
EXTT8=
EXTT9=
EXTT10=
EXTT11=
EXTT12=
EXTT13=
EXTT14=
EXTT15=
EXTT16=with Buddy Alan
EXTT17=
EXTT18=
EXTT19=
PLAYORDER=
